<?xml version="1.0" encoding="UTF-8" standalone="no"?>
<!-- Created with Inkscape (http://www.inkscape.org/) -->

<svg
   version="1.1"
   id="svg2"
   width="666.66669"
   height="496.81332"
   viewBox="0 0 666.66669 496.81332"
   sodipodi:docname="4141244.eps"
   xmlns:inkscape="http://www.inkscape.org/namespaces/inkscape"
   xmlns:sodipodi="http://sodipodi.sourceforge.net/DTD/sodipodi-0.dtd"
   xmlns="http://www.w3.org/2000/svg"
   xmlns:svg="http://www.w3.org/2000/svg">
  <defs
     id="defs6" />
  <sodipodi:namedview
     id="namedview4"
     pagecolor="#ffffff"
     bordercolor="#000000"
     borderopacity="0.25"
     inkscape:showpageshadow="2"
     inkscape:pageopacity="0.0"
     inkscape:pagecheckerboard="0"
     inkscape:deskcolor="#d1d1d1" />
  <g
     id="g8"
     inkscape:groupmode="layer"
     inkscape:label="ink_ext_XXXXXX"
     transform="matrix(1.3333333,0,0,-1.3333333,0,496.81333)">
    <g
       id="g10"
       transform="scale(0.1)">
      <path
         d="m 0,449.129 h 5000 v 2.5 H 0 Z"
         style="fill:#e7e8e5;fill-opacity:1;fill-rule:nonzero;stroke:none"
         id="path12" />
      <path
         d="m 4167.79,290.672 h 331.22 v -2.5 h -331.22 v 2.5"
         style="fill:#e7e8e5;fill-opacity:1;fill-rule:nonzero;stroke:none"
         id="path14" />
      <path
         d="m 3225.27,261.039 h 86.9297 v 2.5 H 3225.27 Z"
         style="fill:#e7e8e5;fill-opacity:1;fill-rule:nonzero;stroke:none"
         id="path16" />
      <path
         d="m 3965.86,383.531 h 191.92 v -2.5 h -191.92 v 2.5"
         style="fill:#e7e8e5;fill-opacity:1;fill-rule:nonzero;stroke:none"
         id="path18" />
      <path
         d="m 524.59,366.73 h 431.933 v -2.5 H 524.59 v 2.5"
         style="fill:#e7e8e5;fill-opacity:1;fill-rule:nonzero;stroke:none"
         id="path20" />
      <path
         d="m 1045.56,366.73 h 63.33 v -2.5 h -63.33 v 2.5"
         style="fill:#e7e8e5;fill-opacity:1;fill-rule:nonzero;stroke:none"
         id="path22" />
      <path
         d="m 1314.71,324.512 h 936.76 v -2.5 h -936.76 v 2.5"
         style="fill:#e7e8e5;fill-opacity:1;fill-rule:nonzero;stroke:none"
         id="path24" />
      <path
         d="m 439.152,3723.59 c -30.101,0 -54.582,-24.48 -54.582,-54.57 V 954.699 c 0,-30.097 24.481,-54.578 54.582,-54.578 H 2370.14 c 30.09,0 54.57,24.481 54.57,54.578 V 3669.02 c 0,30.09 -24.48,54.57 -54.57,54.57 H 439.152 M 2370.14,897.621 H 439.152 c -31.476,0 -57.082,25.598 -57.082,57.078 V 3669.02 c 0,31.46 25.606,57.07 57.082,57.07 H 2370.14 c 31.46,0 57.07,-25.61 57.07,-57.07 V 954.699 c 0,-31.48 -25.61,-57.078 -57.07,-57.078"
         style="fill:#e7e8e5;fill-opacity:1;fill-rule:nonzero;stroke:none"
         id="path26" />
      <path
         d="m 2602.12,3723.59 c -30.09,0 -54.57,-24.48 -54.57,-54.57 V 954.699 c 0,-30.097 24.48,-54.578 54.57,-54.578 H 4533.1 c 30.1,0 54.59,24.481 54.59,54.578 V 3669.02 c 0,30.09 -24.49,54.57 -54.59,54.57 H 2602.12 M 4533.1,897.621 H 2602.12 c -31.47,0 -57.07,25.598 -57.07,57.078 V 3669.02 c 0,31.46 25.6,57.07 57.07,57.07 H 4533.1 c 31.48,0 57.09,-25.61 57.09,-57.07 V 954.699 c 0,-31.48 -25.61,-57.078 -57.09,-57.078"
         style="fill:#e7e8e5;fill-opacity:1;fill-rule:nonzero;stroke:none"
         id="path28" />
      <path
         d="m 3312.7,2010.43 h 825.383 V 3245.07 H 3312.7 Z"
         style="fill:#e2e2e0;fill-opacity:1;fill-rule:nonzero;stroke:none"
         id="path30" />
      <path
         d="m 3287.65,2010.43 h 825.383 V 3245.07 H 3287.65 Z"
         style="fill:#f3f2f1;fill-opacity:1;fill-rule:nonzero;stroke:none"
         id="path32" />
      <path
         d="m 3393.73,2116.5 h 613.23 v 1022.49 h -613.23 z"
         style="fill:#ffffff;fill-opacity:1;fill-rule:nonzero;stroke:none"
         id="path34" />
      <path
         d="m 3393.73,2116.5 h 13.9297 V 3138.99 H 3393.73 Z"
         style="fill:#e2e2e0;fill-opacity:1;fill-rule:nonzero;stroke:none"
         id="path36" />
      <path
         d="m 2148.22,451.609 350.01,0.012 -0.04,1128.879 -350.01,-0.01 0.04,-1128.881"
         style="fill:#e2e2e0;fill-opacity:1;fill-rule:nonzero;stroke:none"
         id="path38" />
      <path
         d="m 2214.7,451.609 h -66.48 l -0.01,160.172 h 136.19 l -69.7,-160.172"
         style="fill:#ededeb;fill-opacity:1;fill-rule:nonzero;stroke:none"
         id="path40" />
      <path
         d="m 4018.53,451.648 350.01,0.012 -0.04,1128.87 -350.01,-0.01 0.04,-1128.872"
         style="fill:#e2e2e0;fill-opacity:1;fill-rule:nonzero;stroke:none"
         id="path42" />
      <path
         d="m 2148.22,475.09 1928.33,0.039 -0.04,1105.391 -1928.33,-0.03 0.04,-1105.4"
         style="fill:#ededeb;fill-opacity:1;fill-rule:nonzero;stroke:none"
         id="path44" />
      <path
         d="m 2199.76,1513.23 v -254.07 l 1171.37,0.02 -0.01,254.06 -1171.36,-0.01"
         style="fill:#e2e2e0;fill-opacity:1;fill-rule:nonzero;stroke:none"
         id="path46" />
      <path
         d="m 3415.74,1513.24 0.01,-254.06 609.2,0.01 -0.01,254.07 -609.2,-0.02"
         style="fill:#e2e2e0;fill-opacity:1;fill-rule:nonzero;stroke:none"
         id="path48" />
      <path
         d="m 3660.08,1482.53 h 120.52 c 52.35,0 102.4,12.51 138.41,34.58 l -397.34,-0.01 c 36.01,-22.07 86.06,-34.57 138.41,-34.57"
         style="fill:#ededeb;fill-opacity:1;fill-rule:nonzero;stroke:none"
         id="path50" />
      <path
         d="m 2437.94,1482.51 h 682.68 c 52.36,0 102.4,12.51 138.41,34.58 l -959.5,-0.01 c 36.01,-22.07 86.05,-34.57 138.41,-34.57"
         style="fill:#ededeb;fill-opacity:1;fill-rule:nonzero;stroke:none"
         id="path52" />
      <path
         d="m 2199.77,1186.37 0.01,-254.069 1171.36,0.019 -0.01,254.07 -1171.36,-0.02"
         style="fill:#e2e2e0;fill-opacity:1;fill-rule:nonzero;stroke:none"
         id="path54" />
      <path
         d="m 3415.75,1186.39 0.01,-254.07 609.2,0.02 -0.01,254.07 -609.2,-0.02"
         style="fill:#e2e2e0;fill-opacity:1;fill-rule:nonzero;stroke:none"
         id="path56" />
      <path
         d="m 3660.09,1155.67 120.52,0.01 c 52.36,0 102.4,12.5 138.41,34.58 l -397.34,-0.02 c 36.01,-22.07 86.06,-34.57 138.41,-34.57"
         style="fill:#ededeb;fill-opacity:1;fill-rule:nonzero;stroke:none"
         id="path58" />
      <path
         d="m 2437.95,1155.66 h 682.69 c 52.35,0 102.39,12.5 138.4,34.58 l -959.5,-0.01 c 36.01,-22.08 86.06,-34.58 138.41,-34.57"
         style="fill:#ededeb;fill-opacity:1;fill-rule:nonzero;stroke:none"
         id="path60" />
      <path
         d="m 2199.78,859.512 0.01,-254.063 1171.36,0.012 -0.01,254.07 -1171.36,-0.019"
         style="fill:#e2e2e0;fill-opacity:1;fill-rule:nonzero;stroke:none"
         id="path62" />
      <path
         d="m 3415.77,859.531 v -254.07 l 609.2,0.019 -0.01,254.071 -609.19,-0.02"
         style="fill:#e2e2e0;fill-opacity:1;fill-rule:nonzero;stroke:none"
         id="path64" />
      <path
         d="m 3660.1,828.82 h 120.53 c 52.35,0 102.39,12.508 138.4,34.578 l -397.33,-0.007 c 36,-22.071 86.05,-34.571 138.4,-34.571"
         style="fill:#ededeb;fill-opacity:1;fill-rule:nonzero;stroke:none"
         id="path66" />
      <path
         d="m 2437.96,828.801 h 682.69 c 52.35,0 102.4,12.508 138.4,34.578 l -959.5,-0.008 c 36.01,-22.07 86.06,-34.57 138.41,-34.57"
         style="fill:#ededeb;fill-opacity:1;fill-rule:nonzero;stroke:none"
         id="path68" />
      <path
         d="m 4010.07,451.641 66.48,0.007 -0.01,160.172 -136.18,-0.011 69.71,-160.168"
         style="fill:#ededeb;fill-opacity:1;fill-rule:nonzero;stroke:none"
         id="path70" />
      <path
         d="m 4192.25,1781.46 c 0,0 -10.15,-114.69 -399.41,-114.71 -389.26,-0.01 -399.42,114.69 -399.42,114.69 l 798.83,0.02"
         style="fill:#fafaf9;fill-opacity:1;fill-rule:nonzero;stroke:none"
         id="path72" />
      <path
         d="m 4192.25,1695.22 c 0,0 -10.15,-114.69 -399.41,-114.7 -389.26,-0.02 -399.42,114.68 -399.42,114.68 l 798.83,0.02"
         style="fill:#e7e8e5;fill-opacity:1;fill-rule:nonzero;stroke:none"
         id="path74" />
      <path
         d="m 1465.95,451.641 h 400.14 L 1747.55,1480.93 h -281.6 V 451.641"
         style="fill:#e2e2e0;fill-opacity:1;fill-rule:nonzero;stroke:none"
         id="path76" />
      <path
         d="M 790.457,451.629 H 1680.5 l 93.93,1204.711 H 884.391 L 790.457,451.629"
         style="fill:#dadbd8;fill-opacity:1;fill-rule:nonzero;stroke:none"
         id="path78" />
      <path
         d="m 726.445,451.629 h 926.165 l 93.93,1204.711 H 820.375 L 726.445,451.629"
         style="fill:#f3f2f1;fill-opacity:1;fill-rule:nonzero;stroke:none"
         id="path80" />
      <path
         d="M 1565.08,546.57 1644.2,1561.4 H 907.91 L 828.785,546.57 h 736.295"
         style="fill:#ffffff;fill-opacity:1;fill-rule:nonzero;stroke:none"
         id="path82" />
      <path
         d="m 622.254,1865.79 h 2267.94 V 3518.74 H 622.254 Z"
         style="fill:#e7e8e5;fill-opacity:1;fill-rule:nonzero;stroke:none"
         id="path84" />
      <path
         d="m 699.887,1953.25 h 2112.67 V 3431.28 H 699.887 Z"
         style="fill:#fafaf9;fill-opacity:1;fill-rule:nonzero;stroke:none"
         id="path86" />
      <path
         d="M 1154.53,1953.25 H 932.781 l 208.799,1478.03 h 221.75 l -208.8,-1478.03"
         style="fill:#ffffff;fill-opacity:1;fill-rule:nonzero;stroke:none"
         id="path88" />
      <path
         d="m 1702.39,1953.25 h -221.75 l 208.81,1478.03 H 1911.2 L 1702.39,1953.25"
         style="fill:#ffffff;fill-opacity:1;fill-rule:nonzero;stroke:none"
         id="path90" />
      <path
         d="M 2408.68,1953.25 H 2297.8 l 208.81,1478.03 h 110.87 l -208.8,-1478.03"
         style="fill:#ffffff;fill-opacity:1;fill-rule:nonzero;stroke:none"
         id="path92" />
      <path
         d="m 1897.4,1953.25 h -110.88 l 208.81,1478.03 H 2106.2 L 1897.4,1953.25"
         style="fill:#ffffff;fill-opacity:1;fill-rule:nonzero;stroke:none"
         id="path94" />
      <path
         d="m 1408.12,1953.25 h -104.5 v 1478.03 h 104.5 V 1953.25"
         style="fill:#e7e8e5;fill-opacity:1;fill-rule:nonzero;stroke:none"
         id="path96" />
      <path
         d="m 1408.12,1953.25 h 23.29 v 1478.03 h -23.29 V 1953.25"
         style="fill:#dadbd8;fill-opacity:1;fill-rule:nonzero;stroke:none"
         id="path98" />
      <path
         d="m 2890.19,1865.79 h 16.7188 V 3518.74 H 2890.19 Z"
         style="fill:#dadbd8;fill-opacity:1;fill-rule:nonzero;stroke:none"
         id="path100" />
      <path
         d="M 4438.89,113.238 C 4438.89,50.6992 3570.82,0 2500,0 1429.18,0 561.109,50.6992 561.109,113.238 c 0,62.532 868.071,113.231 1938.891,113.231 1070.82,0 1938.89,-50.699 1938.89,-113.231"
         style="fill:#f3f2f1;fill-opacity:1;fill-rule:nonzero;stroke:none"
         id="path102" />
      <path
         d="m 2965.81,402.531 126.75,73.199 77.39,-154.949 -105.81,-61.332 -98.33,143.082"
         style="fill:#f9a8b3;fill-opacity:1;fill-rule:nonzero;stroke:none"
         id="path104" />
      <path
         d="m 3135.92,388.91 -17.22,34.469 0.07,0.043 17.2,-34.481 -0.05,-0.031"
         style="fill:#c3c5c2;fill-opacity:1;fill-rule:nonzero;stroke:none"
         id="path106" />
      <path
         d="m 3020.91,322.352 -21.35,31.089 119.14,69.938 17.22,-34.469 -115.01,-66.558"
         style="fill:#d8898c;fill-opacity:1;fill-rule:nonzero;stroke:none"
         id="path108" />
      <path
         d="m 3011.38,902.121 c 89.8,208.029 237.71,449.699 177.1,672.789 l -403.56,63.8 c 0,0 -83.45,-498.57 -66.89,-703.069 17.18,-212.629 268.15,-590.051 268.15,-590.051 l 144.54,84.851 c 0,0 -62.84,322.618 -119.34,471.68"
         style="fill:#406fbf;fill-opacity:1;fill-rule:nonzero;stroke:none"
         id="path110" />
      <path
         d="m 2986.18,345.59 c 0,0 -180.27,271.09 -245.7,483.211 -3.62,11.719 -6.89,23.281 -9.75,34.578 -6.15,24.25 -10.45,47.402 -12.42,68.93 -0.1,1.113 -0.19,2.23 -0.28,3.332 -1.5,18.48 -2.18,39.351 -2.18,62.039 0,32.52 1.4,68.79 3.81,107.06 l 317.28,48.07 c -9.16,-46.81 -9.09,-107.28 3.98,-184.9 -10.28,-22.25 -20.22,-44.199 -29.54,-65.789 v 0 0 c 56.5,-149.062 119.34,-471.68 119.34,-471.68 l -12.02,-7.062 -119.14,-69.938 h -0.01 l -13.37,-7.851"
         style="fill:#2251aa;fill-opacity:1;fill-rule:nonzero;stroke:none"
         id="path112" />
      <path
         d="m 3145.3,432.109 -165.13,-97.48 -52.55,68.312 194.58,103.02 23.1,-73.852"
         style="fill:#406fbf;fill-opacity:1;fill-rule:nonzero;stroke:none"
         id="path114" />
      <path
         d="m 3040.93,967.832 c -0.01,0.027 -0.01,0.059 -0.01,0.078 19.25,41.72 39.65,84.48 59.25,127.95 0,-0.02 0,-0.03 0,-0.05 -19.6,-43.48 -40.01,-86.26 -59.24,-127.978"
         style="fill:#acafad;fill-opacity:1;fill-rule:nonzero;stroke:none"
         id="path116" />
      <path
         d="m 3040.92,967.91 c -13.07,77.62 -13.14,138.09 -3.98,184.9 l 56.22,8.51 c 2.43,-22.18 4.78,-44.1 7.01,-65.46 -19.6,-43.47 -40,-86.23 -59.25,-127.95"
         style="fill:#24427c;fill-opacity:1;fill-rule:nonzero;stroke:none"
         id="path118" />
      <path
         d="m 3165.83,357.52 c -2.48,3.191 -7.72,2.871 -9.7,-0.532 -20.81,-35.66 -80.76,-69.929 -103.91,-82.218 -5.66,-2.989 -9.46,-7.969 -11.3,-13.641 -11.31,-34.828 -56.07,-86.797 -56.07,-86.797 0,0 2.46,-11.57 8.16,-23.191 4.81,-9.813 17.36,-12.789 25.84,-5.899 l 184.2,149.637 c 6.65,5.41 7.1,15.402 0.91,21.32 -10.45,10.012 -25.9,25.61 -38.13,41.321"
         style="fill:#17282f;fill-opacity:1;fill-rule:nonzero;stroke:none"
         id="path120" />
      <path
         d="m 3203.87,331.922 146.36,-1.402 -13.29,-172.778 -122.3,0.977 -10.77,173.203"
         style="fill:#f9a8b3;fill-opacity:1;fill-rule:nonzero;stroke:none"
         id="path122" />
      <path
         d="m 3349.74,184.289 c 0.42,4.051 -3.5,7.102 -7.32,5.703 -39.87,-14.621 -107.12,-3.441 -132.42,1.617 -6.17,1.243 -12.39,-0.23 -17.66,-3.48 -32.43,-19.91 -89.79,-32.059 -89.79,-32.059 0,0 -5.86,-9.82 -9.85,-21.859 -3.61,-10.891 4.52,-22.16 15.99,-22.152 l 225.62,0.113 c 8.1,0.008 14.59,6.726 14.24,14.808 -0.61,14.329 -0.98,36.84 1.19,57.309"
         style="fill:#17282f;fill-opacity:1;fill-rule:nonzero;stroke:none"
         id="path124" />
      <path
         d="m 3342.84,233.711 h -0.06 l 2.95,38.418 h 0.07 l -2.96,-38.418"
         style="fill:#c3c5c2;fill-opacity:1;fill-rule:nonzero;stroke:none"
         id="path126" />
      <path
         d="m 3342.78,233.711 -132.87,1.148 -2.33,37.641 138.15,-0.371 -2.95,-38.418"
         style="fill:#d8898c;fill-opacity:1;fill-rule:nonzero;stroke:none"
         id="path128" />
      <path
         d="m 3442.86,914.012 c 45.61,217.338 127.75,499.848 69.9,611.988 l -472.49,73.17 c 0,0 58.77,-449.58 74.28,-659.022 16.09,-217.757 79.8,-667.617 79.8,-667.617 l 158.38,-0.422 c 0,0 110.25,382.7 90.13,641.903"
         style="fill:#406fbf;fill-opacity:1;fill-rule:nonzero;stroke:none"
         id="path130" />
      <path
         d="m 3352.73,272.109 -7,0.02 -138.15,0.371 -13.23,0.031 c 0,0 -0.68,4.828 -1.92,13.719 -1.5,10.68 -3.79,27.199 -6.68,48.27 -14.47,105.531 -43.78,325.05 -61.13,494.308 -1.2,11.774 -2.35,23.32 -3.43,34.551 -2.67,27.691 -4.93,53.543 -6.64,76.769 -4.42,59.59 -12.33,138.602 -21.39,221.172 l 35.16,5.33 c 31.11,4.71 51.59,32.16 51.59,65.26 0,6.5 -0.79,13.21 -2.44,20.02 l -62.1,255.75 c 78.43,-6.25 158.43,-8.18 227.47,-8.18 82.16,0 148.85,2.74 178.95,4.23 7.61,-24.2 10.87,-53.66 10.87,-86.9 0.02,-137.03 -55.33,-338.54 -89.8,-502.818 v 0 0 c 1.68,-21.641 2.45,-44.141 2.46,-67.211 0.01,-131.52 -24.97,-281.43 -48.98,-395.172 -0.17,-0.828 -0.35,-1.668 -0.52,-2.5 -22.03,-103.93 -43.09,-177.02 -43.09,-177.02"
         style="fill:#2251aa;fill-opacity:1;fill-rule:nonzero;stroke:none"
         id="path132" />
      <path
         d="m 3370.02,266.148 h -190.56 l -2.94,79.332 209.84,-3.398 -16.34,-75.934"
         style="fill:#406fbf;fill-opacity:1;fill-rule:nonzero;stroke:none"
         id="path134" />
      <path
         d="m 3165.04,2285.47 -12.06,-9.67 -11.21,-8.76 c -7.45,-5.72 -15.01,-11.14 -22.54,-16.59 -15.02,-10.93 -30.51,-21.08 -46.06,-31.21 -31.35,-19.86 -63.51,-38.82 -97.49,-55.63 -33.82,-17.08 -69.16,-32.52 -106.94,-45.22 -37.64,-12.97 -78.02,-22.93 -122.51,-27.21 l -8.17,-0.79 c -21.48,-2.07 -41.96,4.46 -57.84,16.62 -33.08,25.45 -53.44,56.58 -66.78,85.04 -6.89,14.34 -12.1,28.65 -16.04,42.59 -3.98,13.95 -7.37,27.61 -9.58,41.09 -2.16,13.52 -3.73,26.8 -4.8,39.9 -0.96,13.12 -1.12,26.11 -1.09,38.94 0.13,12.84 0.97,25.6 2.08,38.27 l 2.28,19.04 3.33,19.96 c 4.72,28.33 31.52,47.47 59.86,42.75 18.11,-3.03 32.46,-15.07 39.23,-30.76 l 4.14,-9.83 c 1.56,-3.7 3.37,-9.36 5.14,-14.14 l 5.23,-14.99 c 3.4,-9.98 7.16,-19.83 10.83,-29.47 7.45,-19.27 15.27,-37.77 23.94,-54.38 8.25,-16.66 17.93,-31.4 26.88,-42.11 8.94,-11.14 18.13,-16.12 22.3,-17.04 l -66,15.82 c 23.78,5.35 49.95,14.87 76.61,26.52 13.3,5.78 26.73,12.49 40.12,19.49 13.49,6.78 26.99,14.25 40.42,21.97 26.8,15.64 53.75,32.21 80.21,49.83 13.32,8.67 26.37,17.83 39.48,26.76 l 19.39,13.61 17.92,12.78 4.06,2.89 c 46.85,33.38 111.9,22.47 145.28,-24.39 32.17,-45.14 22.97,-107.34 -19.62,-141.68"
         style="fill:#f9a8b3;fill-opacity:1;fill-rule:nonzero;stroke:none"
         id="path136" />
      <path
         d="m 2688.48,2436.2 -51.67,-33.7 c -63.31,-13.89 -67.09,70.6 -67.09,70.6 l -18.22,39.89 c -6.18,13.53 -0.21,30.41 14.1,39.9 l 35.94,23.84 c 16.38,10.87 37.66,8.19 47.17,-5.93 l 21.38,-31.75 c 6.22,-9.24 10.05,-19.87 11.17,-30.95 l 7.22,-71.9"
         style="fill:#f9a8b3;fill-opacity:1;fill-rule:nonzero;stroke:none"
         id="path138" />
      <path
         d="m 3161.61,2495.53 c -99,5.91 -302.46,-121.77 -302.46,-121.77 -23.44,-74.61 17.4,-216.05 77.02,-251.02 0,0 151.49,65.08 222.78,128.35 86.16,76.47 202.92,232.51 2.66,244.44"
         style="fill:#17282f;fill-opacity:1;fill-rule:nonzero;stroke:none"
         id="path140" />
      <path
         d="m 3170.78,2495.37 c 121.23,-6.04 280.34,-32.21 401.29,-68.69 75.49,-22.78 122.54,-79.24 88.71,-235.85 -68.62,-317.67 -62.98,-577.22 -121.64,-686.17 0,0 -686.87,-42.43 -778.72,116 18.61,392.22 206.63,691.13 290.47,814.71 26.81,39.52 72.19,62.37 119.89,60"
         style="fill:#17282f;fill-opacity:1;fill-rule:nonzero;stroke:none"
         id="path142" />
      <path
         d="m 3209.69,2451.94 c 17.74,12.7 32.43,1.43 43.42,22.97 5.85,15.83 6.13,33.3 -0.38,53.55 l 198.37,70.43 c -14.03,-66.8 -24.98,-119.57 0.71,-150.94 0.91,-51.56 -118.17,-98.65 -218.82,-79.53 -88.59,16.83 -48.82,65.24 -23.3,83.52"
         style="fill:#f9a8b3;fill-opacity:1;fill-rule:nonzero;stroke:none"
         id="path144" />
      <path
         d="m 3256.66,2488.44 h -0.02 c 0.72,4.55 1.02,9.24 0.86,14.09 0.01,-0.01 0,-0.01 0.01,-0.01 0.16,-4.85 -0.13,-9.54 -0.85,-14.08"
         style="fill:#c3c5c2;fill-opacity:1;fill-rule:nonzero;stroke:none"
         id="path146" />
      <path
         d="m 3255.43,2482.41 c -0.01,0 -0.01,0 -0.01,0 0.49,1.98 0.9,3.99 1.22,6.03 h 0.02 c -0.33,-2.04 -0.74,-4.05 -1.23,-6.03"
         style="fill:#111d23;fill-opacity:1;fill-rule:nonzero;stroke:none"
         id="path148" />
      <path
         d="m 3285.78,2475.34 c -11.77,0 -22.19,2.3 -30.35,7.07 0.49,1.98 0.9,3.99 1.23,6.03 0.72,4.54 1.01,9.23 0.85,14.08 13.59,-6.25 29.98,-9.67 49.38,-9.67 16.46,0 35.09,2.46 56.04,7.73 -26.17,-16.46 -54.2,-25.24 -77.15,-25.24"
         style="fill:#d8898c;fill-opacity:1;fill-rule:nonzero;stroke:none"
         id="path150" />
      <path
         d="m 3239.98,2710.34 c -7.92,76.87 67.01,174.16 129.63,140.62 62.62,-33.55 -129.63,-140.62 -129.63,-140.62"
         style="fill:#17282f;fill-opacity:1;fill-rule:nonzero;stroke:none"
         id="path152" />
      <path
         d="m 3504.05,2666.46 c -39.69,-87.59 -68.53,-146.22 -135.01,-164.28 -132.09,-35.89 -175.56,36.68 -162.79,134.63 11.48,88.15 74.46,216.58 175.73,218 99.77,1.4 161.76,-100.75 122.07,-188.35"
         style="fill:#f9a8b3;fill-opacity:1;fill-rule:nonzero;stroke:none"
         id="path154" />
      <path
         d="m 3481.16,2596.27 c -45.29,6.56 -78.42,88.34 -31.03,131.11 47.38,42.78 31.03,83.87 -3.36,96.04 -34.39,12.16 -96.87,3.35 -111.13,33.96 -14.26,30.62 80.94,52.84 136.29,17.62 55.36,-35.23 52.42,-13.84 52.42,-13.84 0,0 11.55,-18.03 -10.37,-21.81 43.5,-28.94 91.73,-98.55 46.86,-127.06 56.61,-31.87 -31.04,-107.5 -79.68,-116.02"
         style="fill:#17282f;fill-opacity:1;fill-rule:nonzero;stroke:none"
         id="path156" />
      <path
         d="m 3546.86,2717.11 c 30.19,-9.85 43.05,13 43.05,13 0,0 9.51,-37.24 -43.05,-13"
         style="fill:#17282f;fill-opacity:1;fill-rule:nonzero;stroke:none"
         id="path158" />
      <path
         d="m 3324.94,2624.32 c 4.02,1.73 8.11,3.9 12.22,6.61 1.1,0.73 1.33,2.21 0.5,3.3 -0.83,1.08 -2.37,1.38 -3.52,0.64 -30,-19.83 -59.76,-8.54 -60.05,-8.43 -1.31,0.52 -2.75,-0.05 -3.22,-1.25 -0.48,-1.21 0.19,-2.61 1.49,-3.11 1.15,-0.45 25.1,-9.56 52.58,2.24"
         style="fill:#17282f;fill-opacity:1;fill-rule:nonzero;stroke:none"
         id="path160" />
      <path
         d="m 3409.7,2687.23 c -17.81,0 -31.51,6.07 -31.51,6.07 0,0 4.04,0.89 9.66,0.89 6.76,0 15.8,-1.29 22.92,-6.95 -0.36,-0.01 -0.71,-0.01 -1.07,-0.01"
         style="fill:#d8898c;fill-opacity:1;fill-rule:nonzero;stroke:none"
         id="path162" />
      <path
         d="m 3404.49,2672.75 c -16.21,3.57 -27.22,12.69 -27.22,12.69 0,0 0.01,0 0.03,0 0.83,0 18.43,-0.15 27.19,-12.69"
         style="fill:#d8898c;fill-opacity:1;fill-rule:nonzero;stroke:none"
         id="path164" />
      <path
         d="m 3498.55,2571.62 c -19.09,-17.43 -44.49,-24.32 -65.75,-22.89 -31.98,2.16 -27.82,27.33 -10.25,52.02 15.82,22.22 41.76,53.97 69.68,39.65 27.5,-14.12 28.15,-48.85 6.32,-68.78"
         style="fill:#f9a8b3;fill-opacity:1;fill-rule:nonzero;stroke:none"
         id="path166" />
      <path
         d="m 3359.65,2696.14 c -2.78,-7.3 -8.9,-11.72 -13.67,-9.85 -4.76,1.86 -6.37,9.3 -3.59,16.61 2.79,7.3 8.91,11.71 13.68,9.85 4.76,-1.87 6.37,-9.3 3.58,-16.61"
         style="fill:#17282f;fill-opacity:1;fill-rule:nonzero;stroke:none"
         id="path168" />
      <path
         d="m 3275.14,2729.04 c -2.79,-7.31 -8.91,-11.73 -13.68,-9.86 -4.76,1.87 -6.37,9.3 -3.58,16.61 2.78,7.31 8.9,11.72 13.67,9.85 4.76,-1.86 6.37,-9.3 3.59,-16.6"
         style="fill:#17282f;fill-opacity:1;fill-rule:nonzero;stroke:none"
         id="path170" />
      <path
         d="m 3301.53,2717.11 -21.29,-63.98 c 0,0 -22.15,-7.69 -42.4,14.1 21.18,32.89 63.69,49.88 63.69,49.88"
         style="fill:#f46878;fill-opacity:1;fill-rule:nonzero;stroke:none"
         id="path172" />
      <path
         d="m 3398.47,2738.68 2.32,-0.16 c 2.49,0.47 4.1,2.88 3.62,5.38 -4.88,25.06 -24.39,33.39 -25.22,33.73 -2.35,0.97 -5.02,-0.16 -5.97,-2.51 -0.94,-2.35 0.18,-5.03 2.51,-6.01 0.65,-0.27 15.8,-6.93 19.69,-26.92 0.33,-1.69 1.54,-3 3.05,-3.51"
         style="fill:#17282f;fill-opacity:1;fill-rule:nonzero;stroke:none"
         id="path174" />
      <path
         d="m 3243.42,2763.2 c 1.43,-0.38 3.02,-0.06 4.21,1 15.08,13.44 31.12,9.37 31.79,9.19 2.45,-0.65 4.95,0.79 5.59,3.24 0.64,2.44 -0.8,4.96 -3.23,5.64 -0.89,0.22 -21.39,5.68 -40.27,-11.17 -1.89,-1.68 -2.05,-4.59 -0.36,-6.5 l 2.27,-1.4"
         style="fill:#17282f;fill-opacity:1;fill-rule:nonzero;stroke:none"
         id="path176" />
      <path
         d="m 2184.42,2185.71 -43.44,-118.45 c -7.89,-21.54 -25.43,-36.25 -47.12,-39.53 l -576.64,-87.36 c -37.21,-5.63 -59.22,-43.81 -49.15,-85.27 l 201.9,-831.53 c 10.07,-41.461 48.39,-70.5 85.61,-64.871 l 1372.74,207.951 c 37.21,5.64 59.22,43.81 49.15,85.28 L 2934.2,2253.86 c -10.07,41.46 -48.4,70.5 -85.61,64.86 l -617.06,-93.47 c -21.68,-3.29 -39.22,-18 -47.11,-39.54"
         style="fill:#406fbf;fill-opacity:1;fill-rule:nonzero;stroke:none"
         id="path178" />
      <path
         d="m 1746.25,958 c -34.09,0.012 -67.05,27.57 -76.28,65.57 l -51.25,211.06 -79.34,326.77 -71.31,293.7 c -1.65,6.8 -2.44,13.51 -2.44,20.01 0,33.1 20.48,60.55 51.59,65.26 l 407.15,61.68 v -204.18 h 707.64 v 488.04 l 216.58,32.81 c 3.11,0.47 6.22,0.7 9.33,0.7 34.09,0 67.05,-27.57 76.28,-65.56 l 243.27,-1001.93 c 1.65,-6.81 2.44,-13.52 2.44,-20.02 0,-33.1 -20.48,-60.55 -51.59,-65.26 l -35.16,-5.33 -56.22,-8.51 -317.28,-48.07 -519.89,-78.75 -51.57,-7.81 -392.62,-59.481 c -3.11,-0.469 -6.23,-0.699 -9.33,-0.699"
         style="fill:#2d5bb2;fill-opacity:1;fill-rule:nonzero;stroke:none"
         id="path180" />
      <path
         d="m 1888.51,3401.48 c 13.66,0 27.16,-0.73 40.46,-2.12 88.45,122.23 232.18,201.81 394.58,201.81 206.3,0 382.49,-128.37 453.41,-309.53 157.79,-26.9 277.93,-164.21 277.93,-329.67 0,-184.76 -149.78,-334.54 -334.54,-334.54 h -831.84 c -213.75,0 -387.02,173.28 -387.02,387.03 0,213.74 173.27,387.02 387.02,387.02"
         style="fill:#406fbf;fill-opacity:1;fill-rule:nonzero;stroke:none"
         id="path182" />
      <path
         d="m 1924.37,2762.76 v -964.89 h 707.64 v 754.86 l -210.03,210.03 h -497.61"
         style="fill:#406fbf;fill-opacity:1;fill-rule:nonzero;stroke:none"
         id="path184" />
      <path
         d="m 2632.01,1797.87 h -707.64 v 964.89 h 497.61 l 210.03,-210.03 -210.03,210.03 v -210.03 h 210.03 v -754.86"
         style="fill:#a4c3e9;fill-opacity:1;fill-rule:nonzero;stroke:none"
         id="path186" />
      <path
         d="m 2632.01,2552.73 h -210.03 v 210.03 l 210.03,-210.03"
         style="fill:#759ed9;fill-opacity:1;fill-rule:nonzero;stroke:none"
         id="path188" />
      <path
         d="m 1898.55,944.738 -1.5,9.953 50.13,7.59 1.5,-9.949 -50.13,-7.594"
         style="fill:#406fbf;fill-opacity:1;fill-rule:nonzero;stroke:none"
         id="path190" />
      <path
         d="m 2004.86,960.84 -1.51,9.949 175.08,26.52 1.51,-9.95 -175.08,-26.519"
         style="fill:#406fbf;fill-opacity:1;fill-rule:nonzero;stroke:none"
         id="path192" />
      <path
         d="m 2436.77,2090.94 -65.28,-108.96 c -11.87,-19.81 -31.76,-33.5 -53.45,-36.79 l -576.64,-87.35 c -37.21,-5.64 -66.02,-40.86 -64.35,-78.67 l 33.5,-758.36 c 1.67,-37.822 33.19,-63.9 70.4,-58.259 L 3153.7,1170.49 c 37.21,5.64 66.02,40.86 64.35,78.67 l -40.37,913.78 c -1.67,37.81 -33.19,63.89 -70.4,58.26 l -617.06,-93.48 c -21.68,-3.28 -41.58,-16.97 -53.45,-36.78"
         style="fill:#406fbf;fill-opacity:1;fill-rule:nonzero;stroke:none"
         id="path194" />
      <path
         d="m 2456.86,2902.7 c -3.18,0 -6.35,1.21 -8.78,3.63 -4.85,4.85 -4.85,12.71 0,17.56 93.67,93.68 93.67,246.1 0,339.78 -45.38,45.38 -105.71,70.37 -169.89,70.37 -64.17,0 -124.51,-24.99 -169.89,-70.37 -45.38,-45.38 -70.37,-105.71 -70.37,-169.89 0,-64.17 24.99,-124.51 70.37,-169.89 4.85,-4.85 4.85,-12.71 0,-17.56 -4.84,-4.84 -12.71,-4.84 -17.55,0 -50.07,50.07 -77.65,116.64 -77.65,187.45 0,70.81 27.58,137.38 77.65,187.45 50.06,50.07 116.63,77.64 187.44,77.64 70.81,0 137.38,-27.57 187.45,-77.64 103.35,-103.36 103.35,-271.54 0,-374.9 -2.43,-2.42 -5.6,-3.63 -8.78,-3.63"
         style="fill:#ffffff;fill-opacity:1;fill-rule:nonzero;stroke:none"
         id="path196" />
      <path
         d="m 2384.52,2828.38 v 276.72 c 0,24.94 -20.21,45.15 -45.15,45.15 h -122.36 c -24.94,0 -45.15,-20.21 -45.15,-45.15 v -276.72 h -46.02 l 152.35,-131.24 152.36,131.24 h -46.03"
         style="fill:#ffffff;fill-opacity:1;fill-rule:nonzero;stroke:none"
         id="path198" />
      <path
         d="m 3618,2140.96 -6.07,-13.73 -5.75,-12.54 c -3.85,-8.26 -7.95,-16.28 -11.99,-24.35 -8.05,-16.1 -16.85,-31.74 -25.7,-47.38 -18.05,-31.08 -37.27,-61.71 -58.85,-91.34 -10.8,-14.84 -21.85,-29.58 -33.62,-44.1 -11.98,-14.38 -24.28,-28.63 -37.52,-42.59 -26.21,-28.03 -55.87,-54.7 -90.93,-78.77 l -6.89,-4.73 c -3.5,-2.41 -7.45,-4.43 -11.24,-5.91 -41.58,-15.94 -76.19,-18.71 -109.41,-20.65 -32.98,-1.51 -64.14,0.75 -94.52,3.79 -30.34,3.58 -59.9,8.49 -88.96,14.98 -29.27,6.66 -57.14,13.98 -86.49,24.32 -27.39,9.65 -41.77,39.67 -32.12,67.06 7.07,20.09 25.12,33.18 45.05,34.91 l 2.15,0.18 81.08,6.94 c 26.95,2.4 53.55,5 79.37,8.46 12.89,1.74 25.57,3.4 37.95,5.54 12.31,2.22 24.28,4.7 35.7,7.16 22.36,5.09 43.62,12.73 53.69,19.25 l -18.13,-10.64 c 18.15,16.22 36.2,36.66 53.81,58.87 8.78,11.1 17.26,22.97 25.59,35.03 8.51,11.96 16.73,24.46 24.79,37.12 15.94,25.52 31.71,51.75 46.53,78.7 7.57,13.39 14.69,27.06 21.99,40.56 l 20.3,39.18 2.44,4.71 c 26.46,51.08 89.32,71.03 140.4,44.57 49.06,-25.42 69.27,-84.72 47.35,-134.6"
         style="fill:#f9a8b3;fill-opacity:1;fill-rule:nonzero;stroke:none"
         id="path200" />
      <path
         d="m 3649.84,2317.71 c 48.09,-172.8 -74.01,-344.57 -74.01,-344.57 -64.75,-18.54 -235.21,47.9 -271.39,111.49 0,0 59.42,163.38 130.08,250.24 65.42,80.42 187.14,84.1 215.32,-17.16"
         style="fill:#17282f;fill-opacity:1;fill-rule:nonzero;stroke:none"
         id="path202" />
      <path
         d="m 2983.14,1895.99 9.52,-60.95 c -13.33,-63.43 -91.92,-32.18 -91.92,-32.18 l -43.86,-0.24 c -14.87,-0.08 -27.81,12.29 -30.59,29.24 l -6.98,42.56 c -3.19,19.39 7.99,37.7 24.78,40.57 l 37.72,6.46 c 10.98,1.88 22.25,1.01 32.81,-2.52 l 68.52,-22.94"
         style="fill:#f9a8b3;fill-opacity:1;fill-rule:nonzero;stroke:none"
         id="path204" />
    </g>
  </g>
</svg>
